<mxfile host="app.diagrams.net" agent="Mozilla/5.0 (X11; Ubuntu; Linux x86_64; rv:129.0) Gecko/20100101 Firefox/129.0" version="24.8.4">
  <diagram id="C5RBs43oDa-KdzZeNtuy" name="Page-1">
    <mxGraphModel dx="2110" dy="818" grid="1" gridSize="10" guides="1" tooltips="1" connect="1" arrows="1" fold="1" page="1" pageScale="1" pageWidth="827" pageHeight="1169" math="0" shadow="0">
      <root>
        <mxCell id="WIyWlLk6GJQsqaUBKTNV-0" />
        <mxCell id="WIyWlLk6GJQsqaUBKTNV-1" parent="WIyWlLk6GJQsqaUBKTNV-0" />
        <mxCell id="WIyWlLk6GJQsqaUBKTNV-2" value="" style="rounded=0;html=1;jettySize=auto;orthogonalLoop=1;fontSize=11;endArrow=block;endFill=0;endSize=8;strokeWidth=1;shadow=0;labelBackgroundColor=none;edgeStyle=orthogonalEdgeStyle;" parent="WIyWlLk6GJQsqaUBKTNV-1" source="WIyWlLk6GJQsqaUBKTNV-3" target="WIyWlLk6GJQsqaUBKTNV-6" edge="1">
          <mxGeometry relative="1" as="geometry" />
        </mxCell>
        <mxCell id="WIyWlLk6GJQsqaUBKTNV-3" value="Inicio de sesión" style="rounded=1;whiteSpace=wrap;html=1;fontSize=12;glass=0;strokeWidth=1;shadow=0;" parent="WIyWlLk6GJQsqaUBKTNV-1" vertex="1">
          <mxGeometry x="160" y="80" width="120" height="40" as="geometry" />
        </mxCell>
        <mxCell id="WIyWlLk6GJQsqaUBKTNV-4" value="Sí" style="rounded=0;html=1;jettySize=auto;orthogonalLoop=1;fontSize=11;endArrow=block;endFill=0;endSize=8;strokeWidth=1;shadow=0;labelBackgroundColor=none;edgeStyle=orthogonalEdgeStyle;entryX=0.462;entryY=0.002;entryDx=0;entryDy=0;entryPerimeter=0;exitX=0.5;exitY=1;exitDx=0;exitDy=0;" parent="WIyWlLk6GJQsqaUBKTNV-1" source="WIyWlLk6GJQsqaUBKTNV-6" target="WIyWlLk6GJQsqaUBKTNV-12" edge="1">
          <mxGeometry x="-0.1201" y="10" relative="1" as="geometry">
            <mxPoint as="offset" />
            <mxPoint x="220" y="300" as="sourcePoint" />
            <mxPoint x="220" y="335" as="targetPoint" />
            <Array as="points">
              <mxPoint x="220" y="290" />
              <mxPoint x="220" y="290" />
            </Array>
          </mxGeometry>
        </mxCell>
        <mxCell id="WIyWlLk6GJQsqaUBKTNV-5" value="No" style="edgeStyle=orthogonalEdgeStyle;rounded=0;html=1;jettySize=auto;orthogonalLoop=1;fontSize=11;endArrow=block;endFill=0;endSize=8;strokeWidth=1;shadow=0;labelBackgroundColor=none;" parent="WIyWlLk6GJQsqaUBKTNV-1" source="WIyWlLk6GJQsqaUBKTNV-6" target="WIyWlLk6GJQsqaUBKTNV-7" edge="1">
          <mxGeometry y="10" relative="1" as="geometry">
            <mxPoint as="offset" />
          </mxGeometry>
        </mxCell>
        <mxCell id="WIyWlLk6GJQsqaUBKTNV-6" value="¿El usuario es administrador?" style="rhombus;whiteSpace=wrap;html=1;shadow=0;fontFamily=Helvetica;fontSize=12;align=center;strokeWidth=1;spacing=6;spacingTop=-4;" parent="WIyWlLk6GJQsqaUBKTNV-1" vertex="1">
          <mxGeometry x="165" y="165" width="110" height="90" as="geometry" />
        </mxCell>
        <mxCell id="VA_fwSQiowAlrkUewnLS-24" style="edgeStyle=orthogonalEdgeStyle;rounded=0;orthogonalLoop=1;jettySize=auto;html=1;entryX=0;entryY=0.5;entryDx=0;entryDy=0;startArrow=classic;startFill=1;" edge="1" parent="WIyWlLk6GJQsqaUBKTNV-1" source="WIyWlLk6GJQsqaUBKTNV-7" target="VA_fwSQiowAlrkUewnLS-27">
          <mxGeometry relative="1" as="geometry">
            <Array as="points">
              <mxPoint x="380" y="90" />
            </Array>
          </mxGeometry>
        </mxCell>
        <mxCell id="VA_fwSQiowAlrkUewnLS-25" value="búsqueda" style="edgeLabel;html=1;align=center;verticalAlign=middle;resizable=0;points=[];" vertex="1" connectable="0" parent="VA_fwSQiowAlrkUewnLS-24">
          <mxGeometry x="-0.4769" y="-1" relative="1" as="geometry">
            <mxPoint x="29" y="-26" as="offset" />
          </mxGeometry>
        </mxCell>
        <mxCell id="VA_fwSQiowAlrkUewnLS-26" style="edgeStyle=orthogonalEdgeStyle;rounded=0;orthogonalLoop=1;jettySize=auto;html=1;entryX=0;entryY=0.5;entryDx=0;entryDy=0;exitX=1;exitY=0.5;exitDx=0;exitDy=0;startArrow=classic;startFill=1;" edge="1" parent="WIyWlLk6GJQsqaUBKTNV-1" source="WIyWlLk6GJQsqaUBKTNV-7" target="VA_fwSQiowAlrkUewnLS-19">
          <mxGeometry relative="1" as="geometry">
            <Array as="points">
              <mxPoint x="480" y="210" />
              <mxPoint x="480" y="210" />
            </Array>
          </mxGeometry>
        </mxCell>
        <mxCell id="VA_fwSQiowAlrkUewnLS-30" style="edgeStyle=orthogonalEdgeStyle;rounded=0;orthogonalLoop=1;jettySize=auto;html=1;entryX=0;entryY=0.5;entryDx=0;entryDy=0;startArrow=classic;startFill=1;" edge="1" parent="WIyWlLk6GJQsqaUBKTNV-1" source="WIyWlLk6GJQsqaUBKTNV-7" target="VA_fwSQiowAlrkUewnLS-29">
          <mxGeometry relative="1" as="geometry">
            <Array as="points">
              <mxPoint x="380" y="280" />
            </Array>
          </mxGeometry>
        </mxCell>
        <mxCell id="WIyWlLk6GJQsqaUBKTNV-7" value="Página de inicio para clientes" style="rounded=1;whiteSpace=wrap;html=1;fontSize=12;glass=0;strokeWidth=1;shadow=0;" parent="WIyWlLk6GJQsqaUBKTNV-1" vertex="1">
          <mxGeometry x="320" y="190" width="120" height="40" as="geometry" />
        </mxCell>
        <mxCell id="VA_fwSQiowAlrkUewnLS-2" style="edgeStyle=orthogonalEdgeStyle;rounded=0;orthogonalLoop=1;jettySize=auto;html=1;entryX=1;entryY=0.5;entryDx=0;entryDy=0;startArrow=classic;startFill=1;" edge="1" parent="WIyWlLk6GJQsqaUBKTNV-1" source="WIyWlLk6GJQsqaUBKTNV-12" target="VA_fwSQiowAlrkUewnLS-0">
          <mxGeometry relative="1" as="geometry">
            <Array as="points">
              <mxPoint x="190" y="515" />
            </Array>
          </mxGeometry>
        </mxCell>
        <mxCell id="VA_fwSQiowAlrkUewnLS-3" value="" style="edgeStyle=orthogonalEdgeStyle;rounded=0;orthogonalLoop=1;jettySize=auto;html=1;entryX=0.466;entryY=-0.014;entryDx=0;entryDy=0;entryPerimeter=0;startArrow=classic;startFill=1;exitX=0.5;exitY=1;exitDx=0;exitDy=0;" edge="1" parent="WIyWlLk6GJQsqaUBKTNV-1" source="WIyWlLk6GJQsqaUBKTNV-12">
          <mxGeometry relative="1" as="geometry">
            <mxPoint x="227.55" y="385" as="sourcePoint" />
            <mxPoint x="222.44999999999987" y="554.15" as="targetPoint" />
            <Array as="points">
              <mxPoint x="225" y="554" />
            </Array>
          </mxGeometry>
        </mxCell>
        <mxCell id="VA_fwSQiowAlrkUewnLS-12" style="edgeStyle=orthogonalEdgeStyle;rounded=0;orthogonalLoop=1;jettySize=auto;html=1;entryX=1;entryY=0.5;entryDx=0;entryDy=0;startArrow=classic;startFill=1;" edge="1" parent="WIyWlLk6GJQsqaUBKTNV-1" source="WIyWlLk6GJQsqaUBKTNV-12" target="VA_fwSQiowAlrkUewnLS-9">
          <mxGeometry relative="1" as="geometry" />
        </mxCell>
        <mxCell id="WIyWlLk6GJQsqaUBKTNV-12" value="Página de inicio para administradores" style="rounded=1;whiteSpace=wrap;html=1;fontSize=12;glass=0;strokeWidth=1;shadow=0;" parent="WIyWlLk6GJQsqaUBKTNV-1" vertex="1">
          <mxGeometry x="165" y="335" width="120" height="40" as="geometry" />
        </mxCell>
        <mxCell id="VA_fwSQiowAlrkUewnLS-4" style="edgeStyle=orthogonalEdgeStyle;rounded=0;orthogonalLoop=1;jettySize=auto;html=1;entryX=0;entryY=0.5;entryDx=0;entryDy=0;startArrow=classic;startFill=1;" edge="1" parent="WIyWlLk6GJQsqaUBKTNV-1" source="VA_fwSQiowAlrkUewnLS-0" target="VA_fwSQiowAlrkUewnLS-1">
          <mxGeometry relative="1" as="geometry">
            <Array as="points">
              <mxPoint x="100" y="564.71" />
            </Array>
          </mxGeometry>
        </mxCell>
        <mxCell id="VA_fwSQiowAlrkUewnLS-0" value="Catálogos" style="rounded=1;whiteSpace=wrap;html=1;fontSize=12;glass=0;strokeWidth=1;shadow=0;" vertex="1" parent="WIyWlLk6GJQsqaUBKTNV-1">
          <mxGeometry x="60" y="494.71" width="80" height="40" as="geometry" />
        </mxCell>
        <mxCell id="VA_fwSQiowAlrkUewnLS-1" value="&lt;div&gt;Página de producto&lt;/div&gt;&lt;div&gt;(con funciones de admin)&lt;br&gt;&lt;/div&gt;" style="rounded=1;whiteSpace=wrap;html=1;fontSize=12;glass=0;strokeWidth=1;shadow=0;" vertex="1" parent="WIyWlLk6GJQsqaUBKTNV-1">
          <mxGeometry x="150" y="544.71" width="150" height="40" as="geometry" />
        </mxCell>
        <mxCell id="VA_fwSQiowAlrkUewnLS-6" style="edgeStyle=orthogonalEdgeStyle;rounded=0;orthogonalLoop=1;jettySize=auto;html=1;entryX=1;entryY=0.5;entryDx=0;entryDy=0;startArrow=none;startFill=0;" edge="1" parent="WIyWlLk6GJQsqaUBKTNV-1" source="VA_fwSQiowAlrkUewnLS-5" target="VA_fwSQiowAlrkUewnLS-1">
          <mxGeometry relative="1" as="geometry">
            <Array as="points">
              <mxPoint x="360" y="564.71" />
            </Array>
          </mxGeometry>
        </mxCell>
        <mxCell id="VA_fwSQiowAlrkUewnLS-5" value="Resultados de búsqueda" style="rounded=1;whiteSpace=wrap;html=1;fontSize=12;glass=0;strokeWidth=1;shadow=0;" vertex="1" parent="WIyWlLk6GJQsqaUBKTNV-1">
          <mxGeometry x="310" y="494.71" width="80" height="40" as="geometry" />
        </mxCell>
        <mxCell id="VA_fwSQiowAlrkUewnLS-7" style="edgeStyle=orthogonalEdgeStyle;rounded=0;orthogonalLoop=1;jettySize=auto;html=1;entryX=0;entryY=0.5;entryDx=0;entryDy=0;startArrow=classic;startFill=1;" edge="1" parent="WIyWlLk6GJQsqaUBKTNV-1" source="WIyWlLk6GJQsqaUBKTNV-12" target="VA_fwSQiowAlrkUewnLS-5">
          <mxGeometry relative="1" as="geometry">
            <mxPoint x="310" y="455" as="targetPoint" />
            <Array as="points">
              <mxPoint x="250" y="515" />
              <mxPoint x="310" y="515" />
            </Array>
          </mxGeometry>
        </mxCell>
        <mxCell id="VA_fwSQiowAlrkUewnLS-8" value="búsqueda" style="edgeLabel;html=1;align=center;verticalAlign=middle;resizable=0;points=[];" vertex="1" connectable="0" parent="VA_fwSQiowAlrkUewnLS-7">
          <mxGeometry x="-0.2226" relative="1" as="geometry">
            <mxPoint x="30" y="42" as="offset" />
          </mxGeometry>
        </mxCell>
        <mxCell id="VA_fwSQiowAlrkUewnLS-14" style="edgeStyle=orthogonalEdgeStyle;rounded=0;orthogonalLoop=1;jettySize=auto;html=1;entryX=1;entryY=0.5;entryDx=0;entryDy=0;startArrow=classic;startFill=1;" edge="1" parent="WIyWlLk6GJQsqaUBKTNV-1" source="VA_fwSQiowAlrkUewnLS-9" target="VA_fwSQiowAlrkUewnLS-13">
          <mxGeometry relative="1" as="geometry" />
        </mxCell>
        <mxCell id="VA_fwSQiowAlrkUewnLS-58" style="edgeStyle=orthogonalEdgeStyle;rounded=0;orthogonalLoop=1;jettySize=auto;html=1;entryX=0.5;entryY=0;entryDx=0;entryDy=0;startArrow=classic;startFill=1;" edge="1" parent="WIyWlLk6GJQsqaUBKTNV-1" source="VA_fwSQiowAlrkUewnLS-9" target="VA_fwSQiowAlrkUewnLS-10">
          <mxGeometry relative="1" as="geometry" />
        </mxCell>
        <mxCell id="VA_fwSQiowAlrkUewnLS-9" value="Listado de clientes" style="rounded=1;whiteSpace=wrap;html=1;fontSize=12;glass=0;strokeWidth=1;shadow=0;" vertex="1" parent="WIyWlLk6GJQsqaUBKTNV-1">
          <mxGeometry x="60" y="335" width="80" height="40" as="geometry" />
        </mxCell>
        <mxCell id="VA_fwSQiowAlrkUewnLS-16" style="edgeStyle=orthogonalEdgeStyle;rounded=0;orthogonalLoop=1;jettySize=auto;html=1;entryX=1;entryY=0.5;entryDx=0;entryDy=0;startArrow=classic;startFill=1;" edge="1" parent="WIyWlLk6GJQsqaUBKTNV-1" source="VA_fwSQiowAlrkUewnLS-10" target="VA_fwSQiowAlrkUewnLS-15">
          <mxGeometry relative="1" as="geometry" />
        </mxCell>
        <mxCell id="VA_fwSQiowAlrkUewnLS-59" style="edgeStyle=orthogonalEdgeStyle;rounded=0;orthogonalLoop=1;jettySize=auto;html=1;entryX=0.5;entryY=0;entryDx=0;entryDy=0;startArrow=classic;startFill=1;" edge="1" parent="WIyWlLk6GJQsqaUBKTNV-1" source="VA_fwSQiowAlrkUewnLS-10" target="VA_fwSQiowAlrkUewnLS-0">
          <mxGeometry relative="1" as="geometry" />
        </mxCell>
        <mxCell id="VA_fwSQiowAlrkUewnLS-10" value="Listado de pedidos" style="rounded=1;whiteSpace=wrap;html=1;fontSize=12;glass=0;strokeWidth=1;shadow=0;" vertex="1" parent="WIyWlLk6GJQsqaUBKTNV-1">
          <mxGeometry x="60" y="415" width="80" height="40" as="geometry" />
        </mxCell>
        <mxCell id="VA_fwSQiowAlrkUewnLS-11" style="edgeStyle=orthogonalEdgeStyle;rounded=0;orthogonalLoop=1;jettySize=auto;html=1;entryX=1;entryY=0.5;entryDx=0;entryDy=0;exitX=0.125;exitY=1.005;exitDx=0;exitDy=0;exitPerimeter=0;startArrow=classic;startFill=1;" edge="1" parent="WIyWlLk6GJQsqaUBKTNV-1" source="WIyWlLk6GJQsqaUBKTNV-12" target="VA_fwSQiowAlrkUewnLS-10">
          <mxGeometry relative="1" as="geometry">
            <mxPoint x="180" y="385" as="sourcePoint" />
            <Array as="points">
              <mxPoint x="180" y="435" />
            </Array>
          </mxGeometry>
        </mxCell>
        <mxCell id="VA_fwSQiowAlrkUewnLS-38" style="edgeStyle=orthogonalEdgeStyle;rounded=0;orthogonalLoop=1;jettySize=auto;html=1;entryX=1;entryY=0.5;entryDx=0;entryDy=0;" edge="1" parent="WIyWlLk6GJQsqaUBKTNV-1" source="VA_fwSQiowAlrkUewnLS-13" target="VA_fwSQiowAlrkUewnLS-36">
          <mxGeometry relative="1" as="geometry" />
        </mxCell>
        <mxCell id="VA_fwSQiowAlrkUewnLS-39" style="edgeStyle=orthogonalEdgeStyle;rounded=0;orthogonalLoop=1;jettySize=auto;html=1;entryX=1;entryY=0.5;entryDx=0;entryDy=0;startArrow=classic;startFill=1;" edge="1" parent="WIyWlLk6GJQsqaUBKTNV-1" source="VA_fwSQiowAlrkUewnLS-13" target="VA_fwSQiowAlrkUewnLS-37">
          <mxGeometry relative="1" as="geometry" />
        </mxCell>
        <mxCell id="VA_fwSQiowAlrkUewnLS-56" style="edgeStyle=orthogonalEdgeStyle;rounded=0;orthogonalLoop=1;jettySize=auto;html=1;entryX=0.5;entryY=0;entryDx=0;entryDy=0;startArrow=classic;startFill=1;" edge="1" parent="WIyWlLk6GJQsqaUBKTNV-1" source="VA_fwSQiowAlrkUewnLS-13" target="VA_fwSQiowAlrkUewnLS-15">
          <mxGeometry relative="1" as="geometry" />
        </mxCell>
        <mxCell id="VA_fwSQiowAlrkUewnLS-13" value="&lt;div&gt;Perfil de cliente&lt;/div&gt;" style="rounded=1;whiteSpace=wrap;html=1;fontSize=12;glass=0;strokeWidth=1;shadow=0;" vertex="1" parent="WIyWlLk6GJQsqaUBKTNV-1">
          <mxGeometry x="-110" y="335" width="140" height="40" as="geometry" />
        </mxCell>
        <mxCell id="VA_fwSQiowAlrkUewnLS-15" value="Vista de pedido&lt;br&gt;&lt;div&gt;(con funciones de admin)&lt;/div&gt;" style="rounded=1;whiteSpace=wrap;html=1;fontSize=12;glass=0;strokeWidth=1;shadow=0;" vertex="1" parent="WIyWlLk6GJQsqaUBKTNV-1">
          <mxGeometry x="-110" y="415" width="140" height="40" as="geometry" />
        </mxCell>
        <mxCell id="VA_fwSQiowAlrkUewnLS-18" style="edgeStyle=orthogonalEdgeStyle;rounded=0;orthogonalLoop=1;jettySize=auto;html=1;entryX=0.5;entryY=1;entryDx=0;entryDy=0;exitX=1;exitY=0.5;exitDx=0;exitDy=0;startArrow=classic;startFill=1;" edge="1" parent="WIyWlLk6GJQsqaUBKTNV-1" source="VA_fwSQiowAlrkUewnLS-19" target="VA_fwSQiowAlrkUewnLS-20">
          <mxGeometry relative="1" as="geometry">
            <Array as="points">
              <mxPoint x="595" y="210" />
            </Array>
          </mxGeometry>
        </mxCell>
        <mxCell id="VA_fwSQiowAlrkUewnLS-19" value="Catálogos" style="rounded=1;whiteSpace=wrap;html=1;fontSize=12;glass=0;strokeWidth=1;shadow=0;" vertex="1" parent="WIyWlLk6GJQsqaUBKTNV-1">
          <mxGeometry x="480" y="189.99999999999997" width="80" height="40" as="geometry" />
        </mxCell>
        <mxCell id="VA_fwSQiowAlrkUewnLS-20" value="&lt;div&gt;Página de producto&lt;/div&gt;&lt;div&gt;(sin funciones de admin)&lt;br&gt;&lt;/div&gt;" style="rounded=1;whiteSpace=wrap;html=1;fontSize=12;glass=0;strokeWidth=1;shadow=0;" vertex="1" parent="WIyWlLk6GJQsqaUBKTNV-1">
          <mxGeometry x="520" y="129.99999999999994" width="150" height="40" as="geometry" />
        </mxCell>
        <mxCell id="VA_fwSQiowAlrkUewnLS-21" style="edgeStyle=orthogonalEdgeStyle;rounded=0;orthogonalLoop=1;jettySize=auto;html=1;entryX=0.5;entryY=0;entryDx=0;entryDy=0;exitX=1;exitY=0.5;exitDx=0;exitDy=0;startArrow=none;startFill=0;" edge="1" parent="WIyWlLk6GJQsqaUBKTNV-1" source="VA_fwSQiowAlrkUewnLS-22" target="VA_fwSQiowAlrkUewnLS-20">
          <mxGeometry relative="1" as="geometry">
            <Array as="points">
              <mxPoint x="595" y="90" />
            </Array>
            <mxPoint x="531" y="100" as="sourcePoint" />
            <mxPoint x="600" y="120" as="targetPoint" />
          </mxGeometry>
        </mxCell>
        <mxCell id="VA_fwSQiowAlrkUewnLS-22" value="Resultados de búsqueda" style="rounded=1;whiteSpace=wrap;html=1;fontSize=12;glass=0;strokeWidth=1;shadow=0;" vertex="1" parent="WIyWlLk6GJQsqaUBKTNV-1">
          <mxGeometry x="450" y="69.99999999999994" width="80" height="40" as="geometry" />
        </mxCell>
        <mxCell id="VA_fwSQiowAlrkUewnLS-27" value="&amp;nbsp;" style="text;whiteSpace=wrap;html=1;" vertex="1" parent="WIyWlLk6GJQsqaUBKTNV-1">
          <mxGeometry x="450" y="70" width="40" height="40" as="geometry" />
        </mxCell>
        <mxCell id="VA_fwSQiowAlrkUewnLS-33" style="edgeStyle=orthogonalEdgeStyle;rounded=0;orthogonalLoop=1;jettySize=auto;html=1;entryX=0;entryY=0.5;entryDx=0;entryDy=0;startArrow=classic;startFill=1;" edge="1" parent="WIyWlLk6GJQsqaUBKTNV-1" source="VA_fwSQiowAlrkUewnLS-29" target="VA_fwSQiowAlrkUewnLS-31">
          <mxGeometry relative="1" as="geometry" />
        </mxCell>
        <mxCell id="VA_fwSQiowAlrkUewnLS-34" style="edgeStyle=orthogonalEdgeStyle;rounded=0;orthogonalLoop=1;jettySize=auto;html=1;entryX=0;entryY=0.5;entryDx=0;entryDy=0;" edge="1" parent="WIyWlLk6GJQsqaUBKTNV-1" source="VA_fwSQiowAlrkUewnLS-29" target="VA_fwSQiowAlrkUewnLS-32">
          <mxGeometry relative="1" as="geometry" />
        </mxCell>
        <mxCell id="VA_fwSQiowAlrkUewnLS-52" style="edgeStyle=orthogonalEdgeStyle;rounded=0;orthogonalLoop=1;jettySize=auto;html=1;entryX=0.5;entryY=1;entryDx=0;entryDy=0;startArrow=classic;startFill=1;" edge="1" parent="WIyWlLk6GJQsqaUBKTNV-1" source="VA_fwSQiowAlrkUewnLS-29" target="VA_fwSQiowAlrkUewnLS-19">
          <mxGeometry relative="1" as="geometry" />
        </mxCell>
        <mxCell id="VA_fwSQiowAlrkUewnLS-53" style="edgeStyle=orthogonalEdgeStyle;rounded=0;orthogonalLoop=1;jettySize=auto;html=1;entryX=0.5;entryY=0;entryDx=0;entryDy=0;startArrow=classic;startFill=1;" edge="1" parent="WIyWlLk6GJQsqaUBKTNV-1" source="VA_fwSQiowAlrkUewnLS-29" target="VA_fwSQiowAlrkUewnLS-41">
          <mxGeometry relative="1" as="geometry" />
        </mxCell>
        <mxCell id="VA_fwSQiowAlrkUewnLS-29" value="Su perfil" style="rounded=1;whiteSpace=wrap;html=1;fontSize=12;glass=0;strokeWidth=1;shadow=0;" vertex="1" parent="WIyWlLk6GJQsqaUBKTNV-1">
          <mxGeometry x="480" y="260" width="80" height="40" as="geometry" />
        </mxCell>
        <mxCell id="VA_fwSQiowAlrkUewnLS-31" value="Métodos de pago" style="rounded=1;whiteSpace=wrap;html=1;fontSize=12;glass=0;strokeWidth=1;shadow=0;" vertex="1" parent="WIyWlLk6GJQsqaUBKTNV-1">
          <mxGeometry x="600" y="220" width="80" height="40" as="geometry" />
        </mxCell>
        <mxCell id="VA_fwSQiowAlrkUewnLS-32" value="Dirección" style="rounded=1;whiteSpace=wrap;html=1;fontSize=12;glass=0;strokeWidth=1;shadow=0;" vertex="1" parent="WIyWlLk6GJQsqaUBKTNV-1">
          <mxGeometry x="600" y="280" width="80" height="40" as="geometry" />
        </mxCell>
        <mxCell id="VA_fwSQiowAlrkUewnLS-36" value="Métodos de pago" style="rounded=1;whiteSpace=wrap;html=1;fontSize=12;glass=0;strokeWidth=1;shadow=0;" vertex="1" parent="WIyWlLk6GJQsqaUBKTNV-1">
          <mxGeometry x="-230" y="305" width="80" height="40" as="geometry" />
        </mxCell>
        <mxCell id="VA_fwSQiowAlrkUewnLS-37" value="Dirección" style="rounded=1;whiteSpace=wrap;html=1;fontSize=12;glass=0;strokeWidth=1;shadow=0;" vertex="1" parent="WIyWlLk6GJQsqaUBKTNV-1">
          <mxGeometry x="-230" y="365" width="80" height="40" as="geometry" />
        </mxCell>
        <mxCell id="VA_fwSQiowAlrkUewnLS-49" style="edgeStyle=orthogonalEdgeStyle;rounded=0;orthogonalLoop=1;jettySize=auto;html=1;entryX=0;entryY=0.5;entryDx=0;entryDy=0;startArrow=classic;startFill=1;" edge="1" parent="WIyWlLk6GJQsqaUBKTNV-1" source="VA_fwSQiowAlrkUewnLS-41" target="VA_fwSQiowAlrkUewnLS-42">
          <mxGeometry relative="1" as="geometry" />
        </mxCell>
        <mxCell id="VA_fwSQiowAlrkUewnLS-50" style="edgeStyle=orthogonalEdgeStyle;rounded=0;orthogonalLoop=1;jettySize=auto;html=1;entryX=0.5;entryY=1;entryDx=0;entryDy=0;startArrow=classic;startFill=1;" edge="1" parent="WIyWlLk6GJQsqaUBKTNV-1" source="VA_fwSQiowAlrkUewnLS-41" target="WIyWlLk6GJQsqaUBKTNV-7">
          <mxGeometry relative="1" as="geometry" />
        </mxCell>
        <mxCell id="VA_fwSQiowAlrkUewnLS-54" style="edgeStyle=orthogonalEdgeStyle;rounded=0;orthogonalLoop=1;jettySize=auto;html=1;entryX=0.5;entryY=0;entryDx=0;entryDy=0;startArrow=classic;startFill=1;" edge="1" parent="WIyWlLk6GJQsqaUBKTNV-1" source="VA_fwSQiowAlrkUewnLS-41" target="VA_fwSQiowAlrkUewnLS-46">
          <mxGeometry relative="1" as="geometry" />
        </mxCell>
        <mxCell id="VA_fwSQiowAlrkUewnLS-41" value="Carrito" style="rounded=1;whiteSpace=wrap;html=1;fontSize=12;glass=0;strokeWidth=1;shadow=0;" vertex="1" parent="WIyWlLk6GJQsqaUBKTNV-1">
          <mxGeometry x="480" y="335" width="80" height="40" as="geometry" />
        </mxCell>
        <mxCell id="VA_fwSQiowAlrkUewnLS-42" value="Confirmación" style="rounded=1;whiteSpace=wrap;html=1;fontSize=12;glass=0;strokeWidth=1;shadow=0;" vertex="1" parent="WIyWlLk6GJQsqaUBKTNV-1">
          <mxGeometry x="600" y="335" width="80" height="40" as="geometry" />
        </mxCell>
        <mxCell id="VA_fwSQiowAlrkUewnLS-45" value="Vista de pedido&lt;br&gt;&lt;div&gt;(sin funciones de admin)&lt;/div&gt;" style="rounded=1;whiteSpace=wrap;html=1;fontSize=12;glass=0;strokeWidth=1;shadow=0;" vertex="1" parent="WIyWlLk6GJQsqaUBKTNV-1">
          <mxGeometry x="600" y="415" width="140" height="40" as="geometry" />
        </mxCell>
        <mxCell id="VA_fwSQiowAlrkUewnLS-47" style="edgeStyle=orthogonalEdgeStyle;rounded=0;orthogonalLoop=1;jettySize=auto;html=1;entryX=0;entryY=0.5;entryDx=0;entryDy=0;startArrow=classic;startFill=1;" edge="1" parent="WIyWlLk6GJQsqaUBKTNV-1" source="VA_fwSQiowAlrkUewnLS-46" target="VA_fwSQiowAlrkUewnLS-45">
          <mxGeometry relative="1" as="geometry" />
        </mxCell>
        <mxCell id="VA_fwSQiowAlrkUewnLS-51" style="edgeStyle=orthogonalEdgeStyle;rounded=0;orthogonalLoop=1;jettySize=auto;html=1;entryX=0.5;entryY=1;entryDx=0;entryDy=0;startArrow=classic;startFill=1;" edge="1" parent="WIyWlLk6GJQsqaUBKTNV-1" source="VA_fwSQiowAlrkUewnLS-46" target="WIyWlLk6GJQsqaUBKTNV-7">
          <mxGeometry relative="1" as="geometry" />
        </mxCell>
        <mxCell id="VA_fwSQiowAlrkUewnLS-46" value="Listado de pedidos" style="rounded=1;whiteSpace=wrap;html=1;fontSize=12;glass=0;strokeWidth=1;shadow=0;" vertex="1" parent="WIyWlLk6GJQsqaUBKTNV-1">
          <mxGeometry x="480" y="415" width="80" height="40" as="geometry" />
        </mxCell>
      </root>
    </mxGraphModel>
  </diagram>
</mxfile>
